<?xml version="1.0" encoding="UTF-8" standalone="no"?>
<svg
   xmlns:dc="http://purl.org/dc/elements/1.1/"
   xmlns:cc="http://creativecommons.org/ns#"
   xmlns:rdf="http://www.w3.org/1999/02/22-rdf-syntax-ns#"
   xmlns:svg="http://www.w3.org/2000/svg"
   xmlns="http://www.w3.org/2000/svg"
   xmlns:sodipodi="http://sodipodi.sourceforge.net/DTD/sodipodi-0.dtd"
   xmlns:inkscape="http://www.inkscape.org/namespaces/inkscape"
   width="1000"
   height="266.66666"
   viewBox="0 0 999.99993 266.66666"
   version="1.1"
   id="svg65"
   sodipodi:docname="miHoYo.svg"
   inkscape:version="1.0.2 (e86c870879, 2021-01-15)">
  <metadata
     id="metadata71">
    <rdf:RDF>
      <cc:Work
         rdf:about="">
        <dc:format>image/svg+xml</dc:format>
        <dc:type
           rdf:resource="http://purl.org/dc/dcmitype/StillImage" />
        <dc:title></dc:title>
      </cc:Work>
    </rdf:RDF>
  </metadata>
  <defs
     id="defs69">
    <filter
       inkscape:label="Blur Double"
       inkscape:menu="Blurs"
       inkscape:menu-tooltip="Overlays two copies with different blur amounts and modifiable blend and composite"
       style="color-interpolation-filters:sRGB"
       id="filter1012"
       x="-1.7151795e-05"
       width="1.0000343"
       y="-0.00011956386"
       height="1.0002391">
      <feGaussianBlur
         stdDeviation="0.007318099"
         result="fbSourceGraphic"
         id="feGaussianBlur1004" />
      <feGaussianBlur
         stdDeviation="0.01"
         in="SourceGraphic"
         result="result1"
         id="feGaussianBlur1006" />
      <feComposite
         in2="result1"
         operator="arithmetic"
         in="fbSourceGraphic"
         k2="0.5"
         k3="0.5"
         result="result2"
         id="feComposite1008"
         k1="0"
         k4="0" />
      <feBlend
         in2="fbSourceGraphic"
         mode="normal"
         result="result3"
         id="feBlend1010" />
    </filter>
    <filter
       inkscape:label="Cross Blur"
       inkscape:menu="Blurs"
       inkscape:menu-tooltip="Overlays two copies with different blur amounts and modifiable blend and composite"
       style="color-interpolation-filters:sRGB"
       id="filter1012-3"
       x="-0.027286947"
       width="1.0545739"
       y="-0.19021523"
       height="1.3804305">
      <feGaussianBlur
         stdDeviation="11.64243"
         result="fbSourceGraphic"
         id="feGaussianBlur1004-2" />
      <feGaussianBlur
         stdDeviation="0.01"
         in="SourceGraphic"
         result="result1"
         id="feGaussianBlur1006-0" />
      <feComposite
         in2="result1"
         operator="arithmetic"
         in="fbSourceGraphic"
         k2="0.5"
         k3="0.5"
         result="result2"
         id="feComposite1008-6"
         k1="0"
         k4="0" />
      <feBlend
         in2="fbSourceGraphic"
         mode="normal"
         result="fbSourceGraphic"
         id="feBlend1010-7" />
      <feColorMatrix
         result="fbSourceGraphicAlpha"
         in="fbSourceGraphic"
         values="0 0 0 -1 0 0 0 0 -1 0 0 0 0 -1 0 0 0 0 1 0"
         id="feColorMatrix1461" />
      <feColorMatrix
         id="feColorMatrix1463"
         in="fbSourceGraphic"
         values="1 0 0 0 0 0 1 0 0 0 0 0 1 0 0 -0.2125 -0.7154 -0.0721 1 0 "
         result="colormatrix" />
      <feComposite
         in2="colormatrix"
         id="feComposite1465"
         in="fbSourceGraphic"
         operator="arithmetic"
         k2="1"
         k3="2.06587"
         k4="0"
         result="composite"
         k1="0" />
      <feGaussianBlur
         id="feGaussianBlur1467"
         stdDeviation="7.37159 0.01"
         result="blur1" />
      <feGaussianBlur
         id="feGaussianBlur1469"
         in="composite"
         stdDeviation="0.01 13.8953"
         result="blur2" />
      <feBlend
         in2="blur1"
         id="feBlend1471"
         in="blur2"
         mode="screen"
         result="blend" />
    </filter>
    <filter
       inkscape:label="Blur Double"
       inkscape:menu="Blurs"
       inkscape:menu-tooltip="Overlays two copies with different blur amounts and modifiable blend and composite"
       style="color-interpolation-filters:sRGB"
       id="filter1012-32"
       x="-0.008633689"
       width="1.0172673"
       y="-0.060184859"
       height="1.1203697">
      <feGaussianBlur
         stdDeviation="3.5973705"
         result="fbSourceGraphic"
         id="feGaussianBlur1004-3" />
      <feGaussianBlur
         stdDeviation="0.01"
         in="SourceGraphic"
         result="result1"
         id="feGaussianBlur1006-4" />
      <feComposite
         in2="result1"
         operator="arithmetic"
         in="fbSourceGraphic"
         k2="0.5"
         k3="0.5"
         result="result2"
         id="feComposite1008-3"
         k1="0"
         k4="0" />
      <feBlend
         in2="fbSourceGraphic"
         mode="normal"
         result="fbSourceGraphic"
         id="feBlend1010-78" />
      <feColorMatrix
         result="fbSourceGraphicAlpha"
         in="fbSourceGraphic"
         values="0 0 0 -1 0 0 0 0 -1 0 0 0 0 -1 0 0 0 0 1 0"
         id="feColorMatrix925" />
      <feGaussianBlur
         id="feGaussianBlur927"
         stdDeviation="5"
         result="fbSourceGraphic"
         in="fbSourceGraphic" />
      <feGaussianBlur
         id="feGaussianBlur929"
         stdDeviation="0.01"
         in="fbSourceGraphic"
         result="result1" />
      <feComposite
         in2="result1"
         id="feComposite931"
         operator="arithmetic"
         in="fbSourceGraphic"
         k2="0.5"
         k3="0.5"
         result="result2"
         k1="0"
         k4="0" />
      <feBlend
         in2="fbSourceGraphic"
         id="feBlend933"
         mode="normal"
         result="result3" />
    </filter>
  </defs>
  <sodipodi:namedview
     pagecolor="#ffffff"
     bordercolor="#666666"
     borderopacity="1"
     objecttolerance="10"
     gridtolerance="10"
     guidetolerance="10"
     inkscape:pageopacity="0"
     inkscape:pageshadow="2"
     inkscape:window-width="1366"
     inkscape:window-height="705"
     id="namedview67"
     showgrid="false"
     inkscape:zoom="0.70710678"
     inkscape:cx="476.83449"
     inkscape:cy="127.84036"
     inkscape:window-x="-8"
     inkscape:window-y="-8"
     inkscape:window-maximized="1"
     inkscape:current-layer="svg65"
     inkscape:document-rotation="0"
     showguides="false">
    <inkscape:grid
       type="xygrid"
       id="grid870"
       originx="0"
       originy="0" />
  </sodipodi:namedview>
  <!-- Generated by Pixelmator Pro 2.0.3 -->
  <g
     id="g1630">
    <path
       id="path1603"
       style="display:inline;fill:#73d8f1;fill-opacity:1;fill-rule:evenodd;stroke-width:2.18015;stroke-linecap:round;paint-order:stroke fill markers"
       d="m 289.11564,0 c -15.07483,0 -27.21088,12.136054 -27.21088,27.210884 0,15.07483 12.13605,27.210884 27.21088,27.210884 15.07483,0 27.21089,-12.136054 27.21089,-27.210884 C 316.32653,12.136054 304.19047,0 289.11564,0 Z M 59.693877,78.571428 C 26.623469,78.571428 0,105.1949 0,138.2653 v 103.06123 c 0,13.66156 10.998299,24.65986 24.659864,24.65986 13.661564,0 24.659863,-10.9983 24.659863,-24.65986 v -93.70748 c 0,-10.74082 8.646939,-19.38776 19.387755,-19.38776 10.740816,0 19.387755,8.64694 19.387755,19.38776 v 93.70748 c 0,13.65911 10.994398,24.65986 24.652553,24.65986 13.65816,0 24.65256,-11.00075 24.65256,-24.65986 v -93.70748 c 0,-10.74082 8.64694,-19.38776 19.38775,-19.38776 10.74082,0 19.38464,8.64694 19.38776,19.38776 l 0.0146,50.34013 c 0.0111,38.06395 30.64354,68.70748 68.70749,68.70748 38.06394,0 68.70748,-30.64353 68.70748,-68.70748 v -85.88435 c 0,-13.661566 -10.9983,-24.659865 -24.65987,-24.659865 -13.66156,0 -24.65986,10.998299 -24.65986,24.659865 v 84.86394 c 0,10.74082 -8.64694,19.38776 -19.38775,19.38776 -10.74082,0 -19.38508,-8.64694 -19.38776,-19.38776 l -0.0146,-58.67347 c -0.008,-33.0704 -26.62347,-59.693872 -59.69388,-59.693872 -18.70171,0 -35.5553,8.428635 -46.47375,21.894262 -1.37087,1.69075 -3.35617,3.27581 -6.58016,3.27581 -3.22398,0 -5.20925,-1.58506 -6.58017,-3.27581 C 95.249176,87.000063 78.395584,78.571428 59.693877,78.571428 Z" />
    <path
       style="display:inline;fill:#4ea4dd;fill-opacity:1;fill-rule:evenodd;stroke-width:2.18015;stroke-linecap:round;paint-order:stroke fill markers"
       d="m 377.38095,14.965986 c -13.66157,0 -24.65987,10.998299 -24.65987,24.659864 v 201.70068 c 0,13.66156 10.9983,24.65986 24.65987,24.65986 13.66156,0 24.65986,-10.9983 24.65986,-24.65986 v -66.15646 c 0,-6.21837 5.00612,-11.22449 11.22449,-11.22449 h 26.53061 c 6.21837,0 11.22449,5.00612 11.22449,11.22449 v 66.15646 c 0,13.66156 10.9983,24.65986 24.65987,24.65986 13.66156,0 24.65986,-10.9983 24.65986,-24.65986 V 39.62585 c 0,-13.661565 -10.9983,-24.659864 -24.65986,-24.659864 -13.66157,0 -24.65987,10.998299 -24.65987,24.659864 v 61.05442 c 0,6.21837 -5.00612,11.22449 -11.22449,11.22449 H 413.2653 c -6.21837,0 -11.22449,-5.00612 -11.22449,-11.22449 V 39.62585 c 0,-13.661565 -10.9983,-24.659864 -24.65986,-24.659864 z"
       id="path1601" />
    <path
       style="display:inline;fill:#4ea4dd;fill-opacity:1;fill-rule:evenodd;stroke-width:2.18015;stroke-linecap:round;paint-order:stroke fill markers"
       d="m 701.70067,14.965986 c -7.82313,0 -15.47146,9.86395 -8.46884,19.579745 l 48.6049,87.903249 v 118.87755 c 0,13.66156 11.00163,24.65986 24.66319,24.65986 13.66157,0 24.66316,-10.9983 24.66316,-24.65986 V 122.44898 l 48.60494,-87.903249 c 7.00262,-9.715795 -0.65238,-19.579745 -8.46888,-19.579745 h -25.24976 c -3.39881,0 -7.48034,2.255015 -9.11061,5.237329 L 769.86608,69.72789 c -0.6864,1.255616 -1.88534,1.700681 -3.19942,1.700681 -1.31408,0 -2.60786,-0.447705 -3.29905,-1.700681 L 736.04778,20.203315 c -1.6417,-2.976025 -5.6985,-5.237329 -9.09731,-5.237329 z"
       id="path1599" />
    <path
       id="path1591"
       style="display:inline;fill:#4ea4dd;fill-opacity:1;fill-rule:evenodd;stroke-width:2.18015;stroke-linecap:round;paint-order:stroke fill markers"
       d="m 544.38775,64.965986 c -1.36055,0 -2.21089,6.462585 -2.21089,15.306122 0,8.843537 1.70068,17.346938 3.40136,17.346938 1.70068,0 1.70068,-1.020408 9.86395,-8.163265 8.16326,-7.142857 9.52381,-7.142857 9.52381,-9.183673 0,-2.040816 -3.06123,-3.741497 -10.20408,-8.843537 -7.14286,-5.102041 -9.01361,-6.462585 -10.37415,-6.462585 z m 143.19728,0 c -1.36055,0 -3.2313,1.360544 -10.37415,6.462585 -7.14286,5.10204 -10.20409,6.802721 -10.20409,8.843537 0,2.040816 1.36055,2.040816 9.52381,9.183673 8.16327,7.142857 8.16327,8.163265 9.86395,8.163265 1.70068,0 3.40136,-8.503401 3.40136,-17.346938 0,-8.843537 -0.85034,-15.306122 -2.21088,-15.306122 z M 615.98639,79.2517 c -45.07616,0 -81.63266,41.89715 -81.63266,93.53741 0,51.65929 36.5482,93.53742 81.63266,93.53742 45.08445,0 81.63265,-41.87813 81.63265,-93.53742 0,-51.64026 -36.5565,-93.53741 -81.63265,-93.53741 z m 0,46.59864 c 22.51741,0 40.81642,21.07238 40.81632,46.93877 0,25.92357 -18.27404,46.93878 -40.81632,46.93878 -22.54225,0 -40.81633,-21.01521 -40.81633,-46.93878 -1e-4,-25.86639 18.29891,-46.93877 40.81633,-46.93877 z" />
    <path
       id="path969-5-3"
       style="display:inline;fill:#4ea4dd;fill-opacity:1;fill-rule:evenodd;stroke-width:2.18015;stroke-linecap:round;paint-order:stroke fill markers"
       d="m 977.89114,70.408162 c -13.92129,0 -20.7483,6.122449 -24.82993,9.183674 -4.08163,3.061224 -7.48299,6.122449 -11.22449,6.122449 -9.52381,0 -16.32653,-6.462585 -35.37415,-6.462585 -45.08445,0 -81.63265,41.87812 -81.63265,93.53741 0,51.65929 36.5482,93.53742 81.63265,93.53742 45.08446,0 81.63266,-41.87813 81.63266,-93.53742 -2.4e-4,-18.84184 -4.96654,-37.24438 -14.24851,-52.79748 -1.5618,-4.00524 -2.07803,-8.08687 -2.07272,-16.08007 0.007,-11.054418 5.3298,-19.193439 11.21918,-23.299316 5.88939,-4.105878 10.88436,-5.102041 17.00681,-5.782313 -6.46259,-3.061224 -13.94558,-4.421769 -22.10885,-4.421769 z m -71.42857,55.442178 c 22.51738,-0.0404 40.81633,21.0152 40.81633,46.93877 0,25.92357 -18.27408,46.93878 -40.81633,46.93878 -22.54224,0 -40.81632,-21.01521 -40.81632,-46.93878 -10e-5,-25.86639 18.29894,-46.89835 40.81632,-46.93877 z" />
  </g>
</svg>
